<mxfile host="app.diagrams.net" modified="2024-05-14T22:38:03.741Z" agent="Mozilla/5.0 (Windows NT 10.0; Win64; x64) AppleWebKit/537.36 (KHTML, like Gecko) Chrome/123.0.0.0 Safari/537.36 OPR/109.0.0.0" version="24.4.0" etag="ajRyvTLEW6gBrLLqsMDJ" type="github">
  <diagram name="Страница — 1" id="5pW3cgb7Y6n5Fisfo18Q">
    <mxGraphModel>
      <root>
        <mxCell id="0" />
        <mxCell id="1" parent="0" />
      </root>
    </mxGraphModel>
  </diagram>
</mxfile>
